<svg width="48" height="48" fill="none" viewBox="0 0 48 48" class="mb-sm-2 icon-multicolor"><path fill="var(--icons-bg-fill, #ffffff)" d="M9 19h6v19H9V19zm12 0h6v19h-6V19zm12 0h6v19h-6V19z"></path><path fill="#00A5EF" fill-opacity="0.2" d="M9 19h6v19H9V19z"></path><path fill="var(--icons-primary, #0097db)" fill-rule="evenodd" d="M8 18h8v21H8V18zm2 2v17h4V20h-4z" clip-rule="evenodd"></path><path fill="#00A5EF" fill-opacity="0.2" d="M33 19h6v19h-6V19z"></path><path fill="var(--icons-primary, #0097db)" fill-rule="evenodd" d="M32 18h8v21h-8V18zm2 2v17h4V20h-4z" clip-rule="evenodd"></path><path fill="#00A5EF" fill-opacity="0.2" d="M21 19h6v19h-6V19z"></path><path fill="var(--icons-primary, #0097db)" fill-rule="evenodd" d="M20 18h8v21h-8V18zm2 2v17h4V20h-4z" clip-rule="evenodd"></path><path fill="var(--icons-secondary, #454c59)" fill-rule="evenodd" d="M8 37a3 3 0 00-3 3v1a3 3 0 00-3 3v2h2v-2a1 1 0 011-1h38a1 1 0 011 1v2h2v-2a3 3 0 00-3-3v-1a3 3 0 00-3-3H8zm33 4v-1a1 1 0 00-1-1H8a1 1 0 00-1 1v1h34z" clip-rule="evenodd"></path><path fill="var(--icons-secondary, #454c59)" d="M8 19h8v3H8zm12 0h8v3h-8zm12 0h8v3h-8z" opacity="0.15"></path><path fill="var(--icons-secondary, #454c59)" fill-rule="evenodd" d="M22.235 3.047a3 3 0 013.53 0L44.1 16.383c1.567 1.139.76 3.617-1.176 3.617H5.075c-1.937 0-2.743-2.478-1.176-3.617L22.235 3.047zm2.353 1.617a1 1 0 00-1.176 0L5.075 18h37.85L24.588 4.664z" clip-rule="evenodd"></path></svg>