<svg width="48" height="48" fill="none" viewBox="0 0 48 48" class="mb-sm-2 icon-multicolor"><path fill="var(--icons-secondary, #454c59)" fillRule="evenodd" d="M10 21a3 3 0 013-3h32a3 3 0 013 3v18a3 3 0 01-3 3H13a3 3 0 01-3-3V21zm3-1a1 1 0 00-1 1v18a1 1 0 001 1h32a1 1 0 001-1V21a1 1 0 00-1-1H13z" clipRule="evenodd"></path><path fill="var(--icons-bg-fill, #ffffff)" fillRule="evenodd" d="M20 29.465a4 4 0 110-6.93 4 4 0 110 6.93z" clipRule="evenodd"></path><path fill="var(--icons-bg-fill, #ffffff)" fillRule="evenodd" d="M20 27.154l1.002.58a2 2 0 100-3.467L20 24.845l-1.002-.58a2 2 0 100 3.467L20 27.155zm0-4.619a4 4 0 100 6.93 4 4 0 100-6.93z" clipRule="evenodd"></path><path fill="var(--icons-secondary, #454c59)" d="M14 33a1 1 0 011-1h20a1 1 0 110 2H15a1 1 0 01-1-1zm0 4a1 1 0 011-1h6a1 1 0 110 2h-6a1 1 0 01-1-1zm10 0a1 1 0 011-1h6a1 1 0 110 2h-6a1 1 0 01-1-1z"></path><path fill="var(--icons-secondary, #454c59)" d="M10 16a2 2 0 012-2h28a2 2 0 012 2v16a2 2 0 01-2 2H10V16z" opacity="0.15"></path><path fill="var(--icons-bg-fill, #ffffff)" d="M1 9a2 2 0 012-2h32a2 2 0 012 2v18a2 2 0 01-2 2H3a2 2 0 01-2-2V9z"></path><path fill="#00A5EF" d="M4 12a2 2 0 012-2h31v19H4V12z" opacity="0.2"></path><path fill="var(--icons-primary, #0097db)" fillRule="evenodd" d="M0 9a3 3 0 013-3h32a3 3 0 013 3v18a3 3 0 01-3 3H3a3 3 0 01-3-3V9zm3-1a1 1 0 00-1 1v18a1 1 0 001 1h32a1 1 0 001-1V9a1 1 0 00-1-1H3z" clipRule="evenodd"></path><path fill="var(--icons-bg-fill, #ffffff)" fillRule="evenodd" d="M10 17.465a4 4 0 110-6.93 4 4 0 110 6.93z" clipRule="evenodd"></path><path fill="var(--icons-primary, #0097db)" fillRule="evenodd" d="M10 15.154l1.002.58a2 2 0 100-3.467L10 12.845l-1.001-.58a2 2 0 100 3.467L10 15.155zm0-4.619a4 4 0 100 6.93 4 4 0 100-6.93z" clipRule="evenodd"></path><path fill="var(--icons-primary, #0097db)" d="M4 21a1 1 0 011-1h20a1 1 0 110 2H5a1 1 0 01-1-1zm0 4a1 1 0 011-1h6a1 1 0 110 2H5a1 1 0 01-1-1zm10 0a1 1 0 011-1h6a1 1 0 110 2h-6a1 1 0 01-1-1z"></path></svg> 