<svg width="48" height="48" fill="none" viewBox="0 0 48 48" class="mb-sm-2 icon-multicolor"><path fill="var(--icons-secondary, #454c59)" fill-rule="evenodd" d="M10 23a3 3 0 013-3h32a3 3 0 013 3v16a3 3 0 01-3 3H13a3 3 0 01-3-3V23zm3-1a1 1 0 00-1 1v16a1 1 0 001 1h32a1 1 0 001-1V23a1 1 0 00-1-1H13z" clip-rule="evenodd"></path><path fill="var(--icons-secondary, #454c59)" fill-rule="evenodd" d="M29 34a3 3 0 100-6 3 3 0 000 6zm0 2a5 5 0 100-10 5 5 0 000 10z" clip-rule="evenodd"></path><path fill="var(--icons-secondary, #454c59)" d="M10 18a2 2 0 012-2h28a2 2 0 012 2v13a2 2 0 01-2 2H10V18z" opacity="0.15"></path><path fill="var(--icons-bg-fill, #ffffff)" d="M1 9a2 2 0 012-2h32a2 2 0 012 2v16a2 2 0 01-2 2H3a2 2 0 01-2-2V9z"></path><path fill="#00A5EF" d="M4 12a2 2 0 012-2h31v17H4V12z" opacity="0.2"></path><path fill="var(--icons-primary, #0097db)" fill-rule="evenodd" d="M0 9a3 3 0 013-3h32a3 3 0 013 3v16a3 3 0 01-3 3H3a3 3 0 01-3-3V9zm3-1a1 1 0 00-1 1v16a1 1 0 001 1h32a1 1 0 001-1V9a1 1 0 00-1-1H3z" clip-rule="evenodd"></path><path fill="var(--icons-bg-fill, #ffffff)" d="M23 17a4 4 0 11-8 0 4 4 0 018 0z"></path><path fill="var(--icons-primary, #0097db)" fill-rule="evenodd" d="M19 14a3 3 0 100 6 3 3 0 000-6zm-5 3a5 5 0 1110 0 5 5 0 01-10 0z" clip-rule="evenodd"></path></svg>