<svg width="48" height="48" fill="none" viewBox="0 0 48 48" class="mb-sm-2 icon-multicolor"><path fill="var(--icons-secondary, #454c59)" d="M16 19a2 2 0 012-2h18a2 2 0 012 2v17a2 2 0 01-2 2H18a2 2 0 01-2-2V19z" opacity="0.15"></path><path fill="var(--icons-bg-fill, #ffffff)" d="M13 15a2 2 0 012-2h18a2 2 0 012 2v18a2 2 0 01-2 2H15a2 2 0 01-2-2V15z"></path><path fill="#00A5EF" d="M16 18a2 2 0 012-2h17v17a2 2 0 01-2 2H16V18z" opacity="0.2"></path><path fill="var(--icons-primary, #0097db)" fill-rule="evenodd" d="M18 21a3 3 0 013-3h6a1 1 0 110 2h-6a1 1 0 00-1 1v3a1 1 0 11-2 0v-3z" clip-rule="evenodd"></path><path fill="var(--icons-primary, #0097db)" fill-rule="evenodd" d="M12 15a3 3 0 013-3h18a3 3 0 013 3v18a3 3 0 01-3 3H15a3 3 0 01-3-3V15zm3-1a1 1 0 00-1 1v18a1 1 0 001 1h18a1 1 0 001-1V15a1 1 0 00-1-1H15z" clip-rule="evenodd"></path><path fill="var(--icons-primary, #0097db)" d="M20 29a1 1 0 011-1h6a1 1 0 110 2h-6a1 1 0 01-1-1z"></path><path fill="var(--icons-secondary, #454c59)" fill-rule="evenodd" d="M20 2a1 1 0 011 1v2h2V4a1 1 0 112 0v1h2V3a1 1 0 112 0v2h2V4a1 1 0 112 0v1h2V3a1 1 0 112 0v2h3a3 3 0 013 3v3h2a1 1 0 110 2h-2v2h1a1 1 0 110 2h-1v2h2a1 1 0 110 2h-2v2h1a1 1 0 110 2h-1v2h2a1 1 0 110 2h-2v2h1a1 1 0 110 2h-1v2h2a1 1 0 110 2h-2v3a3 3 0 01-3 3h-3v2a1 1 0 11-2 0v-2h-2v1a1 1 0 11-2 0v-1h-2v2a1 1 0 11-2 0v-2h-2v1a1 1 0 11-2 0v-1h-2v2a1 1 0 11-2 0v-2h-2v1a1 1 0 11-2 0v-1h-2v2a1 1 0 11-2 0v-2H8a3 3 0 01-3-3v-3H3a1 1 0 110-2h2v-2H4a1 1 0 110-2h1v-2H3a1 1 0 110-2h2v-2H4a1 1 0 110-2h1v-2H3a1 1 0 110-2h2v-2H4a1 1 0 110-2h1v-2H3a1 1 0 110-2h2V8a3 3 0 013-3h3V3a1 1 0 112 0v2h2V4a1 1 0 112 0v1h2V3a1 1 0 011-1zM8 7a1 1 0 00-1 1v32a1 1 0 001 1h32a1 1 0 001-1V8a1 1 0 00-1-1H8z" clip-rule="evenodd"></path><path fill="var(--icons-primary, #0097db)" d="M29 22a1 1 0 011 1v2a1 1 0 11-2 0v-2a1 1 0 011-1z"></path></svg>