<svg width="48" height="48" fill="none" viewBox="0 0 48 48" class="mb-sm-2 icon-multicolor"><path fill="var(--icons-secondary, #454c59)" fillRule="evenodd" d="M10 9a3 3 0 013-3h32a3 3 0 013 3v18a3 3 0 01-3 3H13a3 3 0 01-3-3V9zm3-1a1 1 0 00-1 1v18a1 1 0 001 1h32a1 1 0 001-1V9a1 1 0 00-1-1H13z" clipRule="evenodd"></path><path fill="var(--icons-secondary, #454c59)" fillRule="evenodd" d="M26 14a1 1 0 100 2 1 1 0 000-2zm-3 1a3 3 0 116 0 3 3 0 01-6 0zm11 5a1 1 0 100 2 1 1 0 000-2zm-3 1a3 3 0 116 0 3 3 0 01-6 0z" clipRule="evenodd"></path><path fill="var(--icons-secondary, #454c59)" d="M32.778 13.707a1 1 0 011.414 1.414l-7.07 7.071a1 1 0 01-1.415-1.414l7.071-7.07z"></path><path fill="var(--icons-secondary, #454c59)" d="M11 14h28a2 2 0 012 2v16a2 2 0 01-2 2H13a2 2 0 01-2-2V14z" opacity="0.15"></path><path fill="var(--icons-bg-fill, #ffffff)" d="M1 21a2 2 0 012-2h32a2 2 0 012 2v18a2 2 0 01-2 2H3a2 2 0 01-2-2V21z"></path><path fill="#00A5EF" d="M4 36a2 2 0 002 2h31V19H4v17z" opacity="0.2"></path><path fill="var(--icons-primary, #0097db)" fillRule="evenodd" d="M0 21a3 3 0 013-3h32a3 3 0 013 3v18a3 3 0 01-3 3H3a3 3 0 01-3-3V21zm3-1a1 1 0 00-1 1v18a1 1 0 001 1h32a1 1 0 001-1V21a1 1 0 00-1-1H3z" clipRule="evenodd"></path><path fill="var(--icons-primary, #0097db)" fillRule="evenodd" d="M16 26a1 1 0 100 2 1 1 0 000-2zm-3 1a3 3 0 116 0 3 3 0 01-6 0zm11 5a1 1 0 100 2 1 1 0 000-2zm-3 1a3 3 0 116 0 3 3 0 01-6 0z" clipRule="evenodd"></path><path fill="var(--icons-primary, #0097db)" d="M22.778 25.707a1 1 0 011.414 1.414l-7.07 7.071a1 1 0 01-1.415-1.414l7.071-7.07z"></path></svg>