<svg width="48" height="48" fill="none" viewBox="0 0 48 48" class="mb-sm-2 icon-multicolor"><path fill="var(--icons-bg-fill, #ffffff)" d="M10 5l1-2h25.5L38 4v3l6.5 13-.5 1H4.5l-1-1L10 7V5z"></path><path fill="var(--icons-secondary, #454c59)" fillRule="evenodd" d="M6 20h36v24h4v2H2v-2h4V20zm2 2h32v22H22V28H12v16H8V22zm12 8v14h-6V30h6zm11-2a5 5 0 00-5 5v3h10v-3a5 5 0 00-5-5zm3 6v-1a3 3 0 10-6 0v1h6z" clipRule="evenodd"></path><path fill="#00A5EF" d="M12 10h28l3.936 9.621A1 1 0 0143.01 21H7.685a1 1 0 01-.878-1.479L12 10z" opacity="0.2"></path><path fill="var(--icons-secondary, #454c59)" d="M6 22h36v2H6v-2z" opacity="0.15"></path><path fill="var(--icons-primary, #0097db)" fillRule="evenodd" d="M9 5a3 3 0 013-3h24a3 3 0 013 3v1.764l6.17 12.342A2 2 0 0143.383 22H4.618a2 2 0 01-1.789-2.894L9 6.764V5zm1.618 3h26.764l6 12H4.618l1-2H24v-2H6.618l4-8zM37 5v1H11V5a1 1 0 011-1h24a1 1 0 011 1z" clipRule="evenodd"></path></svg>