<svg width="48" height="48" fill="none" viewBox="0 0 48 48" class="mb-sm-2 icon-multicolor"><path fill="var(--icons-secondary, #454c59)" d="M7 9a2 2 0 012-2h30a2 2 0 012 2v17a2 2 0 01-2 2H9a2 2 0 01-2-2V9z" opacity="0.15"></path><path fill="var(--icons-bg-fill, #ffffff)" d="M6 5a2 2 0 012-2h32a2 2 0 012 2v16a2 2 0 01-2 2H8a2 2 0 01-2-2V5z"></path><path fill="#00A5EF" d="M9 9a2 2 0 012-2h26a2 2 0 012 2v14H9V9z" opacity="0.2"></path><path fill="var(--icons-primary, #0097db)" fill-rule="evenodd" d="M5 5a3 3 0 013-3h32a3 3 0 013 3v16a3 3 0 01-3 3H8a3 3 0 01-3-3V5zm3-1a1 1 0 00-1 1v16a1 1 0 001 1h32a1 1 0 001-1V5a1 1 0 00-1-1H8z" clip-rule="evenodd"></path><path fill="var(--icons-bg-fill, #ffffff)" d="M29 13a5 5 0 11-10 0 5 5 0 0110 0z"></path><path fill="var(--icons-primary, #0097db)" fill-rule="evenodd" d="M24 16a3 3 0 100-6 3 3 0 000 6zm0 2a5 5 0 100-10 5 5 0 000 10z" clip-rule="evenodd"></path><path fill="var(--icons-secondary, #454c59)" d="M29 35a1 1 0 112 0v10a1 1 0 11-2 0V35zm-6-4a1 1 0 112 0v7a1 1 0 11-2 0v-7zm-12 0a1 1 0 112 0v4a1 1 0 11-2 0v-4zm24 0a1 1 0 112 0v6a1 1 0 11-2 0v-6zm-18 2a1 1 0 112 0v9a1 1 0 11-2 0v-9z"></path></svg>